<svg width="48" height="48" viewBox="0 0 48 48" fill="none" xmlns="http://www.w3.org/2000/svg">
<g clip-path="url(#clip0_938_1125)">
<path d="M24 0C10.7452 0 0 10.7452 0 24C0 37.2548 10.7452 48 24 48C37.2548 48 48 37.2548 48 24C48 10.7452 37.2548 0 24 0ZM22.1631 11.2969L23.1943 16.046C20.1727 16.7148 17.3941 17.5847 17.6191 20.959H21.1699V33.5977H10.4736V21.7852C10.4774 12.3975 17.3697 11.6337 22.1631 11.2969ZM36.4922 11.2969L37.5264 16.046C34.5047 16.7148 31.7262 17.5847 31.9512 20.959H35.502V33.5977H24.8057V21.7852C24.8094 12.3975 31.6988 11.6337 36.4922 11.2969Z" fill="#E1E1E1"/>
<path d="M22.1631 11.2969L23.1943 16.046C20.1727 16.7148 17.3941 17.5847 17.6191 20.959H21.1699V33.5977H10.4736V21.7852C10.4774 12.3975 17.3697 11.6337 22.1631 11.2969Z" fill="#333333"/>
<path d="M36.4922 11.2969L37.5264 16.046C34.5047 16.7148 31.7262 17.5847 31.9512 20.959H35.502V33.5977H24.8057V21.7852C24.8094 12.3975 31.6988 11.6337 36.4922 11.2969Z" fill="#333333"/>
</g>
<defs>
<clipPath id="clip0_938_1125">
<rect width="48" height="48" fill="white"/>
</clipPath>
</defs>
</svg>
